<svg width="294" height="132" viewBox="0 0 294 132" fill="none" xmlns="http://www.w3.org/2000/svg">
<path fill-rule="evenodd" clip-rule="evenodd" d="M31.4607 80.8022C36.9914 80.8022 39.7064 83.8693 39.7064 89.5006V94.076C39.7064 99.7073 36.9914 102.774 31.4607 102.774H28.8463V115.998H23.3157V80.8022H31.4607ZM31.4607 85.8302H28.8463V97.7464H31.4607C33.2205 97.7464 34.1758 96.9419 34.1758 94.4279V89.1486C34.1758 86.6346 33.2205 85.8302 31.4607 85.8302ZM54.7898 80.8022L60.421 115.998H54.8401L53.8848 109.612H47.0973L46.142 115.998H41.0639L46.695 80.8022H54.7898ZM50.4659 87.0369L47.8012 104.836H53.1307L50.4659 87.0369ZM67.108 80.8022H61.5271L66.9572 115.998H75.2028L80.6328 80.8022H75.5547L71.3314 109.512L67.108 80.8022ZM88.7276 85.8302H98.2805V80.8022H83.197V115.998H98.2805V110.97H88.7276V100.663H96.3197V95.6346H88.7276V85.8302ZM109.342 80.8022H101.649V115.998H106.476V91.1095L110.599 115.998H115.828L119.649 90.7575V115.998H124.878V80.8022H117.185L113.414 105.791L109.342 80.8022ZM134.431 85.8302H143.983V80.8022H128.9V115.998H143.983V110.97H134.431V100.663H142.023V95.6346H134.431V85.8302ZM159.218 115.998H164.899V80.8022H159.972V101.869L154.29 80.8022H147.352V115.998H152.33V90.5061L159.218 115.998ZM167.262 85.8302H173.044V115.998H178.575V85.8302H184.357V80.8022H167.262V85.8302ZM200.094 85.8302H209.647V80.8022H194.563V115.998H209.647V110.97H200.094V100.663H207.686V95.6346H200.094V85.8302ZM224.881 115.998H230.563V80.8022H225.635V101.869L219.954 80.8022H213.015V115.998H217.993V90.5061L224.881 115.998ZM234.534 115.998V80.8022H243.283C248.814 80.8022 251.529 83.8693 251.529 89.5006V107.299C251.529 112.931 248.814 115.998 243.283 115.998H234.534ZM243.182 85.8302H240.065V110.97H243.182C244.942 110.97 245.998 110.065 245.998 107.551V89.2492C245.998 86.7352 244.942 85.8302 243.182 85.8302ZM254.344 89.2492C254.344 99.305 265.154 100.663 265.154 107.903C265.154 110.417 264.048 111.322 262.288 111.322C260.528 111.322 259.422 110.417 259.422 107.903V105.389H254.193V107.551C254.193 113.182 257.009 116.4 262.439 116.4C267.869 116.4 270.685 113.182 270.685 107.551C270.685 97.495 259.875 96.1374 259.875 88.8972C259.875 86.3832 260.88 85.4279 262.64 85.4279C264.4 85.4279 265.405 86.3832 265.405 88.8972V90.3553H270.634V89.2492C270.634 83.6179 267.869 80.4 262.489 80.4C257.109 80.4 254.344 83.6179 254.344 89.2492Z" fill="#008421"/>
<path fill-rule="evenodd" clip-rule="evenodd" d="M214.246 129.733V120H215.462V124.004C215.747 123.683 216.075 123.424 216.444 123.228C216.813 123.032 217.236 122.934 217.711 122.934C218.11 122.934 218.47 123.007 218.791 123.152C219.113 123.297 219.387 123.514 219.614 123.803C219.84 124.091 220.015 124.448 220.137 124.873C220.259 125.298 220.32 125.789 220.32 126.344C220.32 126.837 220.252 127.296 220.116 127.721C219.981 128.146 219.785 128.514 219.529 128.825C219.273 129.135 218.96 129.38 218.591 129.558C218.222 129.737 217.806 129.826 217.344 129.826C216.9 129.826 216.523 129.742 216.213 129.575C215.903 129.407 215.632 129.174 215.401 128.874L215.34 129.482C215.304 129.65 215.199 129.733 215.027 129.733H214.246ZM217.317 123.872C216.923 123.872 216.578 123.96 216.281 124.137C215.984 124.313 215.711 124.562 215.462 124.883V128.121C215.68 128.412 215.921 128.617 216.186 128.736C216.451 128.855 216.746 128.914 217.072 128.914C217.716 128.914 218.209 128.692 218.554 128.247C218.898 127.802 219.07 127.167 219.07 126.344C219.07 125.907 219.03 125.533 218.951 125.22C218.872 124.907 218.758 124.651 218.608 124.45C218.459 124.25 218.275 124.104 218.058 124.011C217.84 123.919 217.593 123.872 217.317 123.872ZM223.82 131.709C223.779 131.797 223.728 131.868 223.667 131.921C223.606 131.974 223.512 132 223.385 132H222.488L223.745 129.344L220.905 123.04H221.951C222.055 123.04 222.137 123.065 222.196 123.116C222.255 123.166 222.298 123.222 222.325 123.284L224.166 127.5C224.207 127.597 224.242 127.694 224.271 127.791C224.301 127.888 224.327 127.987 224.35 128.088C224.381 127.987 224.413 127.888 224.445 127.791C224.476 127.694 224.513 127.595 224.553 127.493L226.34 123.284C226.368 123.214 226.414 123.155 226.48 123.109C226.545 123.063 226.617 123.04 226.694 123.04H227.659L223.82 131.709ZM231.572 129.733V120.264H234.677C235.275 120.264 235.791 120.322 236.223 120.436C236.656 120.551 237.011 120.714 237.29 120.925C237.569 121.137 237.775 121.395 237.908 121.702C238.042 122.008 238.109 122.352 238.109 122.736C238.109 122.969 238.071 123.194 237.997 123.41C237.922 123.626 237.809 123.826 237.657 124.011C237.505 124.196 237.315 124.361 237.086 124.507C236.857 124.652 236.589 124.771 236.281 124.863C236.992 125 237.529 125.249 237.891 125.61C238.254 125.971 238.435 126.447 238.435 127.037C238.435 127.438 238.359 127.804 238.207 128.134C238.056 128.465 237.834 128.749 237.541 128.987C237.249 129.225 236.891 129.409 236.468 129.539C236.044 129.669 235.561 129.733 235.017 129.733H231.572ZM232.89 125.419V128.716H234.997C235.373 128.716 235.696 128.674 235.965 128.59C236.235 128.507 236.457 128.389 236.631 128.237C236.805 128.085 236.933 127.904 237.015 127.695C237.096 127.486 237.137 127.256 237.137 127.004C237.137 126.515 236.959 126.129 236.604 125.845C236.248 125.561 235.71 125.419 234.99 125.419H232.89ZM232.89 124.507H234.63C235.001 124.507 235.323 124.467 235.595 124.388C235.867 124.308 236.092 124.198 236.271 124.057C236.45 123.916 236.582 123.746 236.668 123.545C236.754 123.345 236.797 123.126 236.797 122.888C236.797 122.333 236.625 121.925 236.281 121.665C235.937 121.405 235.402 121.275 234.677 121.275H232.89V124.507ZM242.899 122.934C243.311 122.934 243.692 123.001 244.041 123.135C244.389 123.27 244.691 123.464 244.944 123.717C245.198 123.97 245.396 124.283 245.539 124.655C245.681 125.028 245.753 125.452 245.753 125.927C245.753 126.112 245.732 126.236 245.692 126.297C245.651 126.359 245.574 126.39 245.461 126.39H240.881C240.89 126.813 240.949 127.181 241.058 127.493C241.166 127.806 241.316 128.067 241.506 128.276C241.696 128.486 241.923 128.642 242.186 128.746C242.448 128.849 242.743 128.901 243.069 128.901C243.372 128.901 243.634 128.867 243.854 128.798C244.073 128.73 244.263 128.656 244.421 128.577C244.58 128.498 244.712 128.424 244.819 128.356C244.925 128.287 245.017 128.253 245.094 128.253C245.193 128.253 245.27 128.291 245.325 128.366L245.664 128.795C245.515 128.971 245.336 129.124 245.128 129.254C244.919 129.384 244.696 129.491 244.458 129.575C244.221 129.659 243.975 129.721 243.721 129.763C243.468 129.805 243.216 129.826 242.967 129.826C242.491 129.826 242.053 129.748 241.652 129.591C241.251 129.435 240.905 129.206 240.613 128.904C240.32 128.602 240.093 128.229 239.93 127.784C239.767 127.339 239.685 126.828 239.685 126.251C239.685 125.784 239.759 125.348 239.906 124.943C240.053 124.537 240.265 124.186 240.541 123.889C240.818 123.591 241.155 123.358 241.554 123.188C241.952 123.019 242.401 122.934 242.899 122.934ZM242.926 123.8C242.342 123.8 241.882 123.964 241.547 124.292C241.212 124.62 241.003 125.075 240.922 125.656H244.666C244.666 125.383 244.627 125.133 244.55 124.906C244.473 124.68 244.36 124.483 244.21 124.318C244.061 124.153 243.879 124.025 243.663 123.935C243.448 123.845 243.203 123.8 242.926 123.8ZM251.236 124.143C251.182 124.24 251.098 124.289 250.985 124.289C250.917 124.289 250.84 124.264 250.754 124.216C250.668 124.167 250.562 124.113 250.438 124.054C250.313 123.994 250.165 123.939 249.993 123.889C249.821 123.838 249.617 123.813 249.381 123.813C249.177 123.813 248.994 123.838 248.831 123.889C248.668 123.939 248.528 124.009 248.413 124.097C248.297 124.185 248.209 124.287 248.148 124.404C248.087 124.521 248.056 124.648 248.056 124.784C248.056 124.956 248.107 125.099 248.209 125.214C248.311 125.328 248.446 125.427 248.613 125.511C248.781 125.595 248.971 125.669 249.184 125.732C249.397 125.796 249.616 125.865 249.84 125.937C250.064 126.01 250.283 126.09 250.496 126.178C250.708 126.267 250.899 126.377 251.066 126.509C251.234 126.641 251.369 126.803 251.471 126.994C251.572 127.186 251.623 127.416 251.623 127.685C251.623 127.993 251.567 128.279 251.454 128.541C251.34 128.803 251.173 129.03 250.951 129.221C250.729 129.413 250.457 129.564 250.135 129.674C249.814 129.784 249.442 129.839 249.021 129.839C248.541 129.839 248.106 129.763 247.716 129.611C247.327 129.459 246.996 129.264 246.724 129.026L247.01 128.577C247.046 128.52 247.089 128.476 247.139 128.445C247.189 128.414 247.254 128.399 247.336 128.399C247.418 128.399 247.504 128.43 247.594 128.491C247.685 128.553 247.795 128.621 247.924 128.696C248.053 128.771 248.209 128.839 248.393 128.901C248.576 128.963 248.806 128.993 249.082 128.993C249.318 128.993 249.524 128.964 249.701 128.904C249.877 128.845 250.024 128.764 250.142 128.663C250.26 128.562 250.347 128.445 250.404 128.313C250.46 128.181 250.489 128.04 250.489 127.89C250.489 127.705 250.438 127.552 250.336 127.431C250.234 127.309 250.099 127.206 249.932 127.12C249.764 127.034 249.573 126.959 249.357 126.895C249.142 126.831 248.923 126.764 248.698 126.694C248.474 126.623 248.254 126.543 248.039 126.453C247.824 126.362 247.633 126.249 247.465 126.112C247.297 125.976 247.163 125.807 247.061 125.607C246.959 125.406 246.908 125.163 246.908 124.877C246.908 124.621 246.962 124.376 247.071 124.14C247.18 123.904 247.338 123.697 247.547 123.519C247.755 123.34 248.011 123.198 248.314 123.093C248.618 122.987 248.964 122.934 249.354 122.934C249.807 122.934 250.214 123.003 250.574 123.142C250.934 123.281 251.245 123.471 251.508 123.714L251.236 124.143ZM255.279 129.839C254.735 129.839 254.318 129.692 254.025 129.396C253.733 129.101 253.587 128.676 253.587 128.121V124.024H252.758C252.686 124.024 252.625 124.003 252.575 123.961C252.525 123.92 252.5 123.855 252.5 123.767V123.297L253.628 123.159L253.906 121.09C253.916 121.024 253.945 120.97 253.995 120.928C254.045 120.887 254.108 120.866 254.185 120.866H254.797V123.172H256.767V124.024H254.797V128.042C254.797 128.324 254.867 128.533 255.007 128.67C255.148 128.806 255.329 128.874 255.551 128.874C255.678 128.874 255.787 128.858 255.88 128.825C255.973 128.792 256.054 128.756 256.122 128.716C256.189 128.676 256.247 128.64 256.295 128.607C256.342 128.574 256.384 128.557 256.42 128.557C256.484 128.557 256.541 128.595 256.59 128.67L256.944 129.231C256.735 129.421 256.484 129.569 256.189 129.677C255.895 129.785 255.592 129.839 255.279 129.839ZM261.048 122.934C261.55 122.934 262.005 123.015 262.41 123.178C262.815 123.341 263.16 123.573 263.443 123.872C263.726 124.172 263.943 124.534 264.095 124.959C264.247 125.384 264.323 125.859 264.323 126.383C264.323 126.912 264.247 127.388 264.095 127.811C263.943 128.233 263.726 128.595 263.443 128.894C263.16 129.194 262.815 129.424 262.41 129.585C262.005 129.746 261.55 129.826 261.048 129.826C260.545 129.826 260.091 129.746 259.685 129.585C259.28 129.424 258.935 129.194 258.649 128.894C258.364 128.595 258.144 128.233 257.99 127.811C257.836 127.388 257.759 126.912 257.759 126.383C257.759 125.859 257.836 125.384 257.99 124.959C258.144 124.534 258.364 124.172 258.649 123.872C258.935 123.573 259.28 123.341 259.685 123.178C260.091 123.015 260.545 122.934 261.048 122.934ZM261.048 128.907C261.727 128.907 262.234 128.686 262.57 128.243C262.905 127.801 263.072 127.183 263.072 126.39C263.072 125.593 262.905 124.971 262.57 124.526C262.234 124.081 261.727 123.859 261.048 123.859C260.703 123.859 260.404 123.916 260.151 124.031C259.897 124.145 259.685 124.311 259.515 124.526C259.346 124.742 259.219 125.008 259.135 125.323C259.051 125.638 259.009 125.993 259.009 126.39C259.009 126.786 259.051 127.141 259.135 127.454C259.219 127.767 259.346 128.03 259.515 128.243C259.685 128.457 259.897 128.621 260.151 128.736C260.404 128.85 260.703 128.907 261.048 128.907ZM265.818 132V123.04H266.538C266.71 123.04 266.819 123.121 266.864 123.284L266.966 124.077C267.26 123.729 267.597 123.449 267.975 123.238C268.353 123.026 268.789 122.921 269.283 122.921C269.677 122.921 270.035 122.994 270.356 123.142C270.678 123.29 270.952 123.508 271.179 123.796C271.405 124.085 271.579 124.443 271.702 124.87C271.824 125.297 271.885 125.789 271.885 126.344C271.885 126.837 271.817 127.296 271.681 127.721C271.545 128.146 271.351 128.514 271.097 128.825C270.843 129.135 270.532 129.38 270.163 129.558C269.794 129.737 269.378 129.826 268.916 129.826C268.49 129.826 268.127 129.758 267.825 129.621C267.524 129.485 267.258 129.291 267.027 129.04V132H265.818ZM268.882 123.872C268.488 123.872 268.142 123.96 267.846 124.137C267.549 124.313 267.276 124.562 267.027 124.883V128.121C267.249 128.412 267.492 128.617 267.757 128.736C268.022 128.855 268.318 128.914 268.644 128.914C269.283 128.914 269.774 128.692 270.119 128.247C270.463 127.802 270.635 127.167 270.635 126.344C270.635 125.907 270.595 125.533 270.516 125.22C270.437 124.907 270.322 124.651 270.173 124.45C270.023 124.25 269.84 124.104 269.623 124.011C269.405 123.919 269.158 123.872 268.882 123.872Z" fill="#008421"/>
<path fill-rule="evenodd" clip-rule="evenodd" d="M275.138 123.484H275.394C275.694 123.484 275.936 123.383 275.936 123.135C275.936 122.916 275.78 122.772 275.437 122.772C275.295 122.772 275.195 122.785 275.138 122.8V123.484ZM275.124 124.837H274.582V122.451C274.797 122.408 275.095 122.379 275.48 122.379C275.922 122.379 276.121 122.451 276.292 122.554C276.421 122.655 276.52 122.845 276.52 123.076C276.52 123.338 276.321 123.542 276.036 123.63V123.658C276.264 123.745 276.392 123.92 276.464 124.24C276.534 124.603 276.577 124.749 276.635 124.837H276.05C275.979 124.749 275.936 124.531 275.865 124.256C275.823 123.992 275.679 123.876 275.38 123.876H275.124V124.837ZM273.684 123.585C273.684 124.647 274.454 125.492 275.508 125.492C276.534 125.492 277.29 124.647 277.29 123.601C277.29 122.538 276.534 121.68 275.494 121.68C274.454 121.68 273.684 122.538 273.684 123.585ZM277.889 123.585C277.889 124.938 276.848 126 275.494 126C274.155 126 273.086 124.938 273.086 123.585C273.086 122.261 274.155 121.2 275.494 121.2C276.848 121.2 277.889 122.261 277.889 123.585Z" fill="#008421"/>
<path fill-rule="evenodd" clip-rule="evenodd" d="M276.024 78.9889V82.8H274.945V78.9889H273.086V78H277.889V78.9889H276.024Z" fill="#008421"/>
<path fill-rule="evenodd" clip-rule="evenodd" d="M281.768 82.8V79.8535L280.262 82.1659L278.745 79.8795V82.8H277.889V78H278.686L280.315 80.4924L281.897 78H282.693V82.8H281.768Z" fill="#008421"/>
<path fill-rule="evenodd" clip-rule="evenodd" d="M101.219 68.4H293.5L293.263 67.5527L248.745 56.3124C248.745 56.3124 212.692 44.8327 212.692 46.0386C212.692 47.2478 202.748 40.6028 202.748 40.6028L198.015 38.76L101.219 68.4Z" fill="#008421"/>
<path fill-rule="evenodd" clip-rule="evenodd" d="M197.359 38.0019L190.08 35.1236L177.604 27.7322L158.897 25.265L130.665 7.10988L134.509 11.3188L155.444 24.972L129.632 15.7548L131.738 24.9493L118.988 14.1721L117.369 24.0785L110.415 20.5519L91.8553 26.5639L102.888 18.8908L118.094 3.7173L120.881 0.81976L119.611 0L90.2983 24.0319C90.2983 24.0319 79.0762 30.1937 78.4523 32.6598C77.8283 35.1236 56.0024 39.4382 56.0024 39.4382L47.2681 49.2957L29.8111 56.0741L0.621804 67.4815L0.5 68.4H55.8875L197.359 38.0019Z" fill="#008421"/>
</svg>
